<svg version="1.1" id="Layer_1" xmlns="http://www.w3.org/2000/svg" xmlns:xlink="http://www.w3.org/1999/xlink" x="0px" y="0px"
	 width="100%" viewBox="0 0 500 500" enable-background="new 0 0 500 500" xml:space="preserve">
<path fill="#FFFFFF" opacity="1.000000" stroke="none" 
	d="
M272.000000,501.000000 
	C182.666687,501.000000 93.833336,500.974731 5.000194,501.095825 
	C1.576097,501.100494 0.903036,500.423828 0.905301,497.000000 
	C1.013778,333.000092 1.013756,169.000122 0.905337,5.000245 
	C0.903074,1.576941 1.575799,0.903021 4.999878,0.905286 
	C168.999756,1.013775 332.999725,1.013761 496.999634,0.905353 
	C500.422668,0.903090 501.096985,1.575432 501.094727,4.999758 
	C500.986206,168.999634 500.986237,332.999603 501.094604,496.999512 
	C501.096893,500.422272 500.425598,501.102112 497.000275,501.096283 
	C422.167023,500.970001 347.333466,501.000000 272.000000,501.000000 
z"/>
<path fill="#7B7C7E" opacity="1.000000" stroke="none" 
	d="
M172.654175,238.676544 
	C170.797165,243.254776 167.149277,246.706924 166.845657,251.858307 
	C166.455246,258.482361 167.827499,264.339996 172.859787,268.999664 
	C173.566940,269.654480 174.701416,270.304077 174.316971,271.390320 
	C173.830521,272.764740 172.409515,272.401642 171.298584,272.373199 
	C167.160400,272.267303 163.023376,272.115387 158.436066,271.867279 
	C155.767517,270.327423 152.537750,271.660187 150.613495,268.709442 
	C157.449768,256.514160 154.681396,243.955460 153.135895,231.182114 
	C151.565048,227.885986 153.499786,226.543228 155.697449,225.432648 
	C158.373505,224.080322 161.260208,223.254532 164.046982,221.922989 
	C161.146484,221.161972 158.157410,220.941147 155.979660,223.528961 
	C153.795898,226.123917 151.069168,228.004654 148.225769,230.331879 
	C147.084396,230.609894 146.390991,230.430328 145.936066,229.383072 
	C151.500122,220.263947 159.452499,214.845596 169.594940,211.853058 
	C170.402420,212.314346 170.328491,212.770981 169.864532,213.319214 
	C169.759430,213.415085 169.808136,213.489777 169.996078,213.413208 
	C171.732132,212.734207 173.505219,212.591187 174.774902,210.835373 
	C178.867035,207.538528 183.688034,207.787659 188.148727,207.605881 
	C198.533508,207.182724 208.945480,207.426422 219.703613,207.605301 
	C219.818222,210.730179 217.459442,210.222290 215.698898,210.318359 
	C211.812454,210.530426 207.912903,210.377243 203.599014,210.402145 
	C195.669861,210.638092 188.037811,209.375671 180.800980,211.698456 
	C180.548615,213.544479 181.696091,213.818649 182.411774,214.404236 
	C186.528885,217.773041 187.391510,222.799728 184.294678,227.158981 
	C182.091339,230.260452 179.652710,233.244736 175.660492,234.942474 
	C175.274521,235.368103 175.133011,235.545120 174.763885,235.965057 
	C173.883026,236.946350 172.538925,237.055695 172.654175,238.676544 
z"/>
<path fill="#D91D2E" opacity="1.000000" stroke="none" 
	d="
M345.463867,246.401871 
	C346.463837,246.711670 347.116730,246.869995 347.908936,247.349823 
	C349.384155,247.260727 350.465118,247.842987 351.714600,248.795639 
	C361.128479,252.357254 366.149048,260.924347 365.176666,270.624969 
	C364.850281,273.880676 365.215240,277.233063 364.259705,280.436554 
	C361.537994,289.561371 355.007141,294.768158 346.309387,297.689362 
	C339.261078,300.056580 331.958527,300.461456 324.604370,300.461578 
	C281.623901,300.462280 238.643356,300.423798 195.662994,300.492493 
	C179.458679,300.518372 164.662430,296.644348 152.324570,285.596619 
	C149.747589,283.289093 145.456863,280.401794 146.320496,277.684814 
	C147.253494,274.749542 152.187576,276.615601 155.321884,276.584656 
	C169.311401,276.446625 183.303604,276.582336 197.637802,276.832275 
	C198.260956,278.472809 197.175293,278.970245 195.862030,279.741577 
	C194.085373,280.309418 192.663528,280.376068 190.802872,280.396179 
	C184.862686,280.586853 179.353058,280.473663 173.441467,280.453308 
	C169.057831,280.292786 165.073654,280.252136 161.092941,280.349243 
	C159.354034,280.391663 156.993149,279.900665 156.532944,282.272675 
	C156.119431,284.403992 158.192169,285.488434 159.757278,286.229980 
	C165.093018,288.757935 169.874115,292.459747 176.120361,293.965515 
	C180.137589,295.489594 184.073349,295.343842 188.223221,296.369843 
	C191.222870,298.190125 194.133438,297.542877 196.919205,297.577545 
	C203.416138,297.658386 209.914993,297.625824 216.880142,297.581238 
	C243.634979,297.486237 269.923676,297.834869 296.655945,297.257568 
	C299.445007,296.512604 301.750183,295.636169 304.669495,296.210907 
	C306.961853,297.636902 309.098602,297.700134 311.253479,297.617065 
	C317.986603,297.357483 324.747253,298.213501 331.784241,296.905945 
	C333.728516,295.811371 335.460052,295.149384 337.275818,294.985260 
	C345.881409,294.207367 350.441498,288.846802 354.945465,281.918701 
	C357.701447,277.679321 357.608704,273.591736 358.889709,269.429504 
	C361.266998,261.705170 355.671814,251.395798 346.691895,250.914124 
	C345.708069,250.861359 344.763824,250.443222 343.505737,249.899887 
	C342.510193,249.315765 342.048248,248.737350 341.759064,247.622650 
	C342.573547,245.921280 343.827576,246.025848 345.463867,246.401871 
z"/>
<path fill="#67696B" opacity="1.000000" stroke="none" 
	d="
M174.357056,236.154327 
	C174.082397,234.892166 173.768433,233.338547 175.326263,233.188446 
	C179.869888,232.750687 181.306229,228.623413 183.634293,225.911163 
	C186.766571,222.261963 184.996323,217.260818 180.393097,215.022751 
	C178.838272,214.266785 177.870743,213.408600 178.119843,211.669266 
	C178.387604,209.799744 180.001175,210.265579 181.236359,209.971283 
	C187.791855,208.409454 194.451752,209.168716 201.536530,208.992706 
	C205.923431,211.138947 210.209747,209.368652 214.665222,210.284790 
	C222.272751,215.063034 223.654266,221.396088 218.559326,228.222595 
	C217.186829,229.061050 216.060654,229.256500 214.493622,229.362183 
	C210.504745,229.942291 206.637436,228.221344 203.130997,231.106323 
	C197.407928,231.724213 191.867691,231.989426 185.887878,232.248444 
	C181.836395,233.500534 178.489243,235.460052 174.357056,236.154327 
z"/>
<path fill="#DB3240" opacity="1.000000" stroke="none" 
	d="
M345.539154,246.273834 
	C344.762451,246.699219 343.713898,246.845093 342.336212,246.991394 
	C341.106018,247.858170 340.005676,248.111343 338.802490,248.004684 
	C323.932343,246.686600 309.031708,247.728882 293.670135,247.435211 
	C287.165192,247.426178 281.136230,247.689178 274.646484,247.201294 
	C268.924408,244.378662 267.087036,241.388062 267.721680,236.602722 
	C268.299805,232.243958 270.869141,229.846786 276.881042,229.062714 
	C286.461334,227.813232 296.117065,228.702515 306.194092,228.547943 
	C308.732605,228.624084 310.815704,228.647263 313.338318,228.583313 
	C315.226746,228.475632 316.677002,228.585098 318.556519,228.541718 
	C322.651764,228.602142 326.338104,229.002014 330.341461,227.801758 
	C333.178833,227.506119 335.609955,227.627930 338.413391,227.619537 
	C341.782318,228.057693 344.221832,227.242645 346.002380,224.225021 
	C346.853760,223.017471 347.565887,222.128662 348.238159,220.801163 
	C349.221191,218.832138 350.231293,217.261459 350.908875,215.151978 
	C350.560608,211.841049 348.167389,212.555923 346.368683,212.440155 
	C340.987732,212.093857 335.556641,212.973312 329.817261,211.641785 
	C328.139313,210.592072 326.676239,210.415024 325.154816,210.412689 
	C312.859131,210.393753 300.563446,210.357819 288.267822,210.435806 
	C287.265289,210.442169 286.277466,210.554901 284.993835,211.248459 
	C282.761993,212.334778 280.801086,212.381836 278.416901,212.134644 
	C277.028839,211.887085 276.099762,211.479691 274.794678,211.118317 
	C272.658020,210.405869 271.013397,210.960419 269.094421,211.849426 
	C266.728699,213.039307 264.506714,213.241653 261.925598,213.226501 
	C261.405396,213.261963 261.200775,213.279480 260.698517,213.339401 
	C260.208496,213.422455 260.016113,213.463074 259.543335,213.581207 
	C258.716248,213.835983 258.174622,214.026810 257.384949,214.376007 
	C256.748779,214.602325 256.369141,214.659790 255.696350,214.608093 
	C255.245758,214.454559 255.079987,214.355194 254.883423,213.967606 
	C260.634033,209.703583 267.270660,207.794846 274.050323,207.710693 
	C302.506775,207.357498 330.968567,207.428802 359.428436,207.363861 
	C360.365814,207.361725 361.573303,206.957764 362.083710,208.129471 
	C362.560913,209.225082 361.599152,209.954971 361.012482,210.716583 
	C356.444550,216.646362 351.778015,222.502731 347.325012,228.517319 
	C345.459717,231.036652 343.334137,231.986282 340.169189,231.963257 
	C320.696930,231.821640 301.223206,231.869324 281.750031,231.903976 
	C279.430939,231.908112 277.061615,231.971573 274.806091,232.441727 
	C271.833710,233.061356 270.334991,235.172165 270.399261,238.247986 
	C270.463501,241.321335 272.056458,243.344208 275.036530,243.885864 
	C277.473511,244.328812 279.991241,244.427200 282.477570,244.483017 
	C301.773346,244.916336 321.088257,243.793152 340.371338,245.189438 
	C342.014160,245.308395 343.635834,245.719131 345.539154,246.273834 
z"/>
<path fill="#808081" opacity="1.000000" stroke="none" 
	d="
M145.821838,229.284805 
	C146.468323,229.321899 146.935486,229.642029 147.700104,229.981903 
	C149.332779,229.133347 150.718155,228.670593 152.630127,229.736786 
	C155.723221,230.212631 156.016663,232.086548 156.009949,234.270020 
	C155.982773,243.102448 155.812698,251.940704 156.082779,260.764954 
	C156.204880,264.754486 152.719620,265.783508 151.048676,268.650330 
	C145.972290,271.214722 144.569855,270.749084 140.354126,265.274109 
	C137.136703,257.166229 137.312561,249.335815 140.193298,241.238953 
	C142.172256,240.602234 142.051529,238.595413 143.228088,237.701797 
	C143.283005,237.660065 144.354309,237.196442 143.314499,236.989899 
	C142.966156,236.920715 142.452332,237.389145 141.645996,237.187500 
	C142.044968,234.099487 143.336365,231.541046 145.821838,229.284805 
z"/>
<path fill="#FD0F1C" opacity="1.000000" stroke="none" 
	d="
M252.061798,256.321228 
	C251.739838,256.143280 251.302719,255.987045 251.181625,255.789032 
	C249.742477,254.795670 248.666687,253.741867 247.585327,252.231720 
	C247.405319,251.961426 247.012039,251.675903 246.932343,251.446350 
	C243.013138,245.103455 241.889694,238.478851 243.006500,231.389236 
	C243.219437,230.037521 243.396515,228.790207 245.056122,227.860992 
	C247.953812,228.329483 249.001297,230.243973 249.140381,232.495605 
	C249.372894,236.259613 250.903687,239.552292 252.211349,242.976685 
	C253.883331,247.355148 257.100281,249.077469 261.255310,251.186417 
	C268.154999,254.688477 274.983521,254.893219 282.228302,255.091812 
	C286.209625,255.200958 290.186371,255.979538 294.137726,255.075211 
	C298.304230,254.121658 301.883118,256.907227 306.320068,256.749146 
	C308.232697,257.108246 309.461365,257.719147 309.658051,259.882477 
	C309.497192,260.591919 309.372681,260.861511 308.892517,261.404388 
	C307.713287,262.092560 306.823853,262.235107 305.464417,262.339203 
	C294.059692,262.709412 283.121094,261.970337 271.732758,261.996765 
	C270.139282,262.001862 268.986542,261.984680 267.411804,262.091278 
	C266.536926,262.160980 266.085297,262.188568 265.310059,262.100708 
	C263.937836,260.716064 262.519012,260.294281 260.601807,260.195435 
	C257.212158,259.846008 254.913849,257.924042 252.061798,256.321228 
z"/>
<path fill="#515457" opacity="1.000000" stroke="none" 
	d="
M215.265472,211.245270 
	C210.741928,210.311127 206.229645,212.462112 202.091614,209.398666 
	C207.838562,208.698502 213.707123,209.536530 219.789215,208.140442 
	C227.713287,207.734711 235.365768,207.658707 243.480621,207.638916 
	C245.390244,208.833038 249.038956,206.325455 248.301498,210.723785 
	C244.941788,213.345993 242.031235,215.880600 239.946503,219.641510 
	C237.556137,223.305099 237.428009,227.298126 236.160370,231.261902 
	C228.860886,232.258087 221.843307,231.493805 214.385483,231.525421 
	C213.442139,230.590683 213.192566,229.731628 213.755310,228.389832 
	C215.062851,227.995941 216.126297,227.992477 217.588562,227.989014 
	C219.865265,226.377975 222.351440,226.679291 224.507904,225.931244 
	C227.183792,225.003036 229.200562,223.599319 229.547729,220.517761 
	C229.884323,217.530365 228.021118,216.191757 225.816055,214.751663 
	C222.647415,212.682251 218.987106,212.501099 215.265472,211.245270 
z"/>
<path fill="#E9091A" opacity="1.000000" stroke="none" 
	d="
M196.317780,279.321716 
	C196.535568,278.508850 197.116501,278.027435 197.839096,277.295715 
	C200.957809,276.933868 203.934875,276.725586 206.911926,276.725586 
	C238.311966,276.725464 269.712006,276.758575 301.565979,276.916199 
	C312.661224,277.078339 323.303558,276.791931 334.356506,277.395874 
	C334.928894,277.919434 335.088684,278.197876 335.031067,278.907898 
	C330.446869,281.577820 325.755798,280.255310 321.216003,280.527069 
	C318.430695,280.693848 315.621338,280.658203 312.339294,280.484680 
	C297.034912,280.754272 282.208618,280.305634 267.395294,280.658905 
	C246.104462,281.166595 224.822800,280.168304 203.536453,280.581970 
	C201.221329,280.626953 198.853989,280.781921 196.317780,279.321716 
z"/>
<path fill="#D91D2E" opacity="1.000000" stroke="none" 
	d="
M337.457275,265.161530 
	C334.226898,263.522491 330.857208,263.025879 327.271606,263.030609 
	C312.799927,263.049683 298.328125,262.997894 283.509674,262.798950 
	C283.759918,260.750793 285.346436,261.577301 286.470062,261.559174 
	C292.290222,261.465210 298.112701,261.515778 304.368042,261.514923 
	C305.936188,261.502197 307.071594,261.550751 308.575409,261.266602 
	C308.945923,261.071075 308.992676,261.033295 309.014160,261.012268 
	C311.079346,259.229187 313.574860,259.622223 316.417603,259.554504 
	C318.935120,259.552185 321.005249,259.509735 323.516174,259.575745 
	C327.476471,259.563843 331.001160,259.353943 334.935333,259.974701 
	C337.209503,260.936035 337.991608,262.394196 337.457275,265.161530 
z"/>
<path fill="#D91D2E" opacity="1.000000" stroke="none" 
	d="
M335.476654,278.054626 
	C324.224579,277.830902 313.402740,278.499359 302.308563,277.350403 
	C309.211945,275.817841 316.458649,276.844055 323.673340,276.530701 
	C325.977844,276.430573 328.311005,276.605621 330.587189,276.313232 
	C336.654968,275.533905 338.340851,273.013947 337.127502,266.382080 
	C337.062500,265.936340 337.094055,265.906708 337.109619,265.891602 
	C340.229218,264.477020 340.999603,266.544586 341.165436,268.855865 
	C341.464264,273.020264 339.540161,276.086884 335.476654,278.054626 
z"/>
<path fill="#DB3240" opacity="1.000000" stroke="none" 
	d="
M246.197937,227.646393 
	C242.176331,232.916946 243.901138,238.562317 244.772690,243.906815 
	C245.113510,245.996735 246.030319,248.293945 246.870682,250.820511 
	C238.125320,239.939163 241.566315,220.822372 253.747574,214.436432 
	C254.176727,214.485992 254.304733,214.683228 254.444031,215.232758 
	C252.883911,219.170425 248.590881,220.898972 247.839417,225.451752 
	C247.449432,226.442398 247.044403,227.011169 246.197937,227.646393 
z"/>
<path fill="#7A7A7C" opacity="1.000000" stroke="none" 
	d="
M140.050873,265.369568 
	C140.819427,265.143005 142.156326,265.121918 142.270599,265.485291 
	C143.596649,269.702179 146.994400,269.019379 150.564606,268.996094 
	C153.150467,270.071442 155.871872,269.288635 157.898590,271.413147 
	C154.832993,271.840698 151.651169,271.691223 148.533081,272.068481 
	C143.547241,272.671661 140.464798,271.105133 140.050873,265.369568 
z"/>
<path fill="#E9091A" opacity="1.000000" stroke="none" 
	d="
M306.174194,261.738831 
	C298.520935,261.993011 291.164520,262.073456 283.485535,262.389771 
	C279.088684,262.649689 275.014435,262.673706 270.501526,262.549622 
	C269.925598,262.185547 269.788330,261.969604 269.800354,261.400085 
	C281.670105,261.031219 293.390503,261.015991 305.583008,261.009003 
	C306.193695,261.199890 306.332367,261.382507 306.174194,261.738831 
z"/>
<path fill="#595C5F" opacity="1.000000" stroke="none" 
	d="
M213.540161,227.997009 
	C213.994644,228.850220 213.989883,229.701065 213.961807,230.980774 
	C210.576721,231.491241 207.214966,231.572830 203.400696,231.556717 
	C202.794525,229.087326 203.670227,227.810684 206.283081,227.972000 
	C208.540894,228.111389 210.814377,227.996887 213.540161,227.997009 
z"/>
<path fill="#7B7C7E" opacity="1.000000" stroke="none" 
	d="
M248.310776,210.838318 
	C248.837463,207.133102 244.778900,210.211426 244.125824,207.993454 
	C246.939621,206.835846 249.937668,207.072296 253.424469,207.484543 
	C252.313080,209.828659 250.232330,209.943481 248.310776,210.838318 
z"/>
<path fill="#DB3240" opacity="1.000000" stroke="none" 
	d="
M251.878723,256.450409 
	C254.950409,255.992050 257.076294,258.989349 260.587097,259.089172 
	C261.744476,259.567902 262.622192,259.908722 262.939178,261.214569 
	C258.819641,261.033112 255.356339,259.036957 251.878723,256.450409 
z"/>
<path fill="#808081" opacity="1.000000" stroke="none" 
	d="
M173.998779,236.006500 
	C177.357788,234.206909 180.929169,232.975937 185.044373,232.185120 
	C181.859299,234.098618 178.270264,235.954971 174.323181,237.819031 
	C173.644943,237.457260 173.503265,237.032745 173.791840,236.269928 
	C174.014114,235.995743 174.000610,235.998444 173.998779,236.006500 
z"/>
<path fill="#7A7A7C" opacity="1.000000" stroke="none" 
	d="
M236.205429,231.485565 
	C236.044327,227.440613 236.557068,223.490952 239.431046,220.024963 
	C238.694870,223.785416 237.619324,227.635574 236.205429,231.485565 
z"/>
<path fill="#7A7A7C" opacity="1.000000" stroke="none" 
	d="
M141.168030,237.375748 
	C143.548111,236.845016 143.157135,233.993286 145.010406,233.447968 
	C145.649612,236.901779 145.158722,237.869965 140.824783,240.970306 
	C140.608032,239.903458 140.795181,238.825439 141.168030,237.375748 
z"/>
<path fill="#67696B" opacity="1.000000" stroke="none" 
	d="
M169.412720,214.005844 
	C169.272964,213.475418 169.541885,212.946838 169.900482,212.134354 
	C169.990143,211.850449 170.200668,211.677277 170.335114,211.699738 
	C171.158127,211.664047 171.705658,211.215454 172.684998,210.990555 
	C173.429138,210.805267 173.840805,210.671341 174.579224,210.527786 
	C175.037354,214.342361 172.310898,214.002411 169.412720,214.005844 
z"/>
<path fill="#DB3240" opacity="1.000000" stroke="none" 
	d="
M247.428101,252.263443 
	C249.248886,252.199783 250.182678,253.518600 251.027191,255.287048 
	C249.249222,255.307999 248.445663,253.822647 247.428101,252.263443 
z"/>
<path fill="#E5202F" opacity="1.000000" stroke="none" 
	d="
M263.225464,261.783325 
	C262.359528,260.895111 261.788239,260.234344 261.090576,259.345337 
	C262.778229,258.924347 264.365326,259.146851 264.948761,261.629883 
	C264.497681,261.993774 264.008942,262.002319 263.225464,261.783325 
z"/>
<path fill="#67696B" opacity="1.000000" stroke="none" 
	d="
M173.688705,236.022125 
	C174.000275,236.402588 173.986420,236.809433 173.968842,237.521500 
	C173.673187,238.053024 173.381256,238.279327 172.926163,238.732025 
	C169.740585,237.323669 171.797897,236.736816 173.688705,236.022125 
z"/>
<path fill="#DB3240" opacity="1.000000" stroke="none" 
	d="
M351.797607,248.739914 
	C350.792267,248.679657 349.666748,248.328537 348.294739,247.824387 
	C349.339508,247.550049 350.638580,247.392288 351.797607,248.739914 
z"/>
<path fill="#E5202F" opacity="1.000000" stroke="none" 
	d="
M269.608398,261.041931 
	C269.981171,261.347443 270.018860,261.647583 270.062805,262.174225 
	C269.218597,262.430145 268.374298,262.458801 267.259277,262.310425 
	C267.454071,261.156708 268.330872,261.035278 269.608398,261.041931 
z"/>
<path fill="#7B7C7E" opacity="1.000000" stroke="none" 
	d="
M172.809021,210.813446 
	C172.599243,211.620193 171.986603,211.923904 170.831879,211.800537 
	C170.960403,210.925232 171.709641,210.660522 172.809021,210.813446 
z"/>
<path fill="#E5202F" opacity="1.000000" stroke="none" 
	d="
M254.585052,214.940674 
	C254.282196,215.013153 254.158539,214.652740 254.103622,214.470734 
	C254.140656,214.131851 254.232605,213.974960 254.588593,213.748718 
	C254.852600,213.679367 254.934158,213.975677 254.987091,214.119934 
	C254.989319,214.465530 254.938614,214.666855 254.585052,214.940674 
z"/>
<path fill="#7A7A7C" opacity="1.000000" stroke="none" 
	d="
M153.040390,229.641052 
	C151.610504,229.999969 150.220993,230.000549 148.414536,230.001389 
	C152.455246,225.609436 155.404602,218.900726 163.430130,219.992676 
	C164.828827,220.182999 166.683395,219.621460 166.833786,221.854279 
	C166.986343,224.119400 165.139008,223.657150 163.747864,224.051285 
	C159.896149,225.142593 155.566177,225.373184 153.040390,229.641052 
z"/>
<path fill="#7A7A7C" opacity="1.000000" stroke="none" 
	d="
M163.240509,244.085632 
	C160.932022,243.145432 160.652222,242.256454 162.684784,240.045273 
	C164.945679,237.585678 166.817841,235.658615 162.866486,233.047241 
	C161.508942,232.150070 161.731354,230.325226 162.710953,228.980637 
	C163.484741,227.918503 164.441391,226.692535 165.981049,227.381668 
	C167.554031,228.085754 166.886566,229.698837 166.986221,230.946686 
	C167.361938,235.651932 167.230713,240.238464 163.240509,244.085632 
z"/>
<path fill="#7A7A7C" opacity="1.000000" stroke="none" 
	d="
M163.436829,268.491577 
	C162.042603,268.894531 159.984604,269.130951 160.542450,267.789734 
	C161.812271,264.736664 161.786377,261.688690 161.913391,258.490295 
	C162.670700,261.769714 166.536301,264.381866 163.436829,268.491577 
z"/>
<path fill="#67696B" opacity="1.000000" stroke="none" 
	d="
M168.998077,213.997955 
	C168.878632,214.982086 168.643173,215.923111 167.377975,215.797958 
	C167.054016,215.765900 166.499634,215.247086 166.523926,214.998016 
	C166.629608,213.914719 167.598907,214.143951 168.660614,214.009125 
	C169.004044,214.003998 169.000000,214.000000 168.998077,213.997955 
z"/>
<path fill="#7A7A7C" opacity="1.000000" stroke="none" 
	d="
M162.045868,248.392578 
	C162.790848,248.797226 162.796707,249.206177 162.269180,249.568741 
	C162.158569,249.644791 161.901505,249.642654 161.793228,249.564255 
	C161.274612,249.188721 161.293747,248.779984 162.045868,248.392578 
z"/>
<path fill="#FE1421" opacity="1.000000" stroke="none" 
	d="
M195.543518,278.990479 
	C234.319550,278.999268 272.684479,279.008301 311.517090,279.021698 
	C313.288666,281.118378 311.667877,282.096191 310.313873,282.951874 
	C308.215546,284.277954 306.392914,286.021118 304.095490,287.039520 
	C302.812286,287.608368 301.638672,288.455719 301.851715,289.976257 
	C302.465393,294.356018 299.679230,296.222412 295.952576,297.859070 
	C269.851166,298.120605 244.174881,297.879944 218.045349,298.118103 
	C214.367874,298.620239 211.150497,298.809235 207.572876,297.784241 
	C205.402847,296.101013 204.805618,293.945740 204.967285,291.846161 
	C205.273026,287.875885 203.230621,286.570770 199.765091,286.367065 
	C196.359451,286.166962 193.346100,285.035767 191.040588,282.409302 
	C190.345276,281.617218 190.181763,280.664368 190.773972,279.334595 
	C192.381943,279.010345 193.757172,279.000519 195.543518,278.990479 
z"/>
<path fill="#E5202F" opacity="1.000000" stroke="none" 
	d="
M335.027771,278.253662 
	C337.612610,275.369995 340.472595,272.927673 340.029297,268.639160 
	C339.878357,267.179199 339.582916,266.095398 337.511749,265.933899 
	C336.848541,264.479980 336.571899,263.083435 336.146423,261.358704 
	C335.682007,260.655304 335.326660,260.305817 335.061096,259.897461 
	C329.849945,251.884644 329.851990,251.883316 338.820312,248.505585 
	C340.272522,247.988037 341.324066,248.136932 342.698792,248.789703 
	C347.480194,250.076096 351.908051,249.854004 355.835876,253.836624 
	C360.583923,258.650909 361.364868,263.454498 360.024475,269.358093 
	C359.805969,270.320404 358.890381,271.650452 359.237885,272.133514 
	C362.517670,276.691986 357.622223,278.394501 356.667236,281.403656 
	C355.023376,286.583466 350.491028,288.570251 348.123596,292.588745 
	C346.349792,295.599487 342.896759,295.011353 340.169952,295.894501 
	C338.163788,296.544220 335.976410,296.634369 333.463654,296.982300 
	C332.217468,297.755341 331.223907,297.984772 329.764526,297.711609 
	C328.554626,293.884338 328.858765,290.063293 328.333466,286.299561 
	C327.960358,283.626556 330.696564,282.227570 333.394531,281.849365 
	C334.696228,281.666870 336.311615,281.711029 334.932556,279.346008 
	C335.012909,278.844116 335.015533,278.675354 335.027771,278.253662 
z"/>
<path fill="#F11525" opacity="1.000000" stroke="none" 
	d="
M334.540497,279.008972 
	C335.528412,280.737061 339.045868,279.049469 338.371826,281.604248 
	C337.860168,283.543671 335.587555,282.868103 333.984589,283.011658 
	C329.476746,283.415314 328.006531,285.630463 330.142548,289.542419 
	C331.645691,292.295288 330.781219,294.216278 329.076660,296.613129 
	C325.495880,299.005676 321.660522,297.824890 317.985748,297.922089 
	C313.923523,298.029541 309.812378,298.476196 305.351410,297.287262 
	C302.904724,297.356567 300.874176,297.686646 298.455444,298.025940 
	C297.695618,297.978607 297.395996,297.797394 297.077087,297.249939 
	C299.031372,294.604889 302.134216,292.810364 300.195648,288.648041 
	C299.549622,287.260895 301.493591,286.541046 302.983551,285.923798 
	C306.360596,284.524750 309.421936,282.495209 311.949341,279.379333 
	C319.346771,279.019043 326.708771,279.012054 334.540497,279.008972 
z"/>
<path fill="#F11525" opacity="1.000000" stroke="none" 
	d="
M190.537842,279.008728 
	C191.576096,283.330383 194.964050,284.207397 198.369217,284.955139 
	C199.804779,285.270416 201.342804,285.124664 202.774475,285.450867 
	C205.326477,286.032349 207.704636,286.755859 206.144547,290.388153 
	C205.311050,292.328766 206.903748,294.211823 206.995117,296.584351 
	C200.978806,298.878906 194.870010,297.988190 188.365326,297.271088 
	C184.052383,297.221405 180.214172,296.912689 176.242615,295.297699 
	C171.016357,290.897491 172.102509,285.030090 171.773422,279.335510 
	C178.026291,279.021149 184.047653,279.009247 190.537842,279.008728 
z"/>
<path fill="#E71627" opacity="1.000000" stroke="none" 
	d="
M171.536682,279.018433 
	C174.189224,283.882660 172.207443,289.821625 175.983185,294.636444 
	C172.299362,293.037781 167.689240,293.842163 164.366272,289.927887 
	C162.823059,288.110077 158.861694,287.634857 156.418304,285.676636 
	C155.108170,284.626678 153.905350,283.743805 154.590454,281.595551 
	C155.293808,279.390045 156.582352,278.911591 158.645721,278.966034 
	C162.784073,279.075226 166.927246,279.001831 171.536682,279.018433 
z"/>
<path fill="#F40714" opacity="1.000000" stroke="none" 
	d="
M296.528076,296.993317 
	C297.269592,297.188507 297.542847,297.386871 297.941681,297.810181 
	C296.384644,299.669281 294.271515,298.961365 292.355377,298.965210 
	C267.550385,299.015045 242.745239,298.999054 217.471710,298.995605 
	C216.826889,298.824219 216.650528,298.656891 216.728439,298.228119 
	C218.652008,296.292419 220.769714,297.039307 222.678589,297.035126 
	C247.138885,296.981720 271.599365,296.997955 296.528076,296.993317 
z"/>
<path fill="#E9091A" opacity="1.000000" stroke="none" 
	d="
M342.927979,248.748718 
	C341.969147,249.011841 340.894745,249.015076 339.418457,249.020935 
	C335.652557,250.178665 332.152496,249.721069 328.825409,249.292465 
	C322.588928,248.489059 316.359985,248.535156 309.662079,248.466614 
	C306.791382,248.445236 304.374176,248.518433 301.500610,248.451355 
	C298.375977,248.087692 295.457062,249.117142 293.070404,246.518997 
	C306.616821,246.050858 320.210175,245.995560 333.802734,246.075714 
	C336.253540,246.090149 338.701080,246.661575 341.578583,246.983826 
	C342.275513,247.490814 342.543976,247.989807 342.927979,248.748718 
z"/>
<path fill="#E9091A" opacity="1.000000" stroke="none" 
	d="
M305.041931,297.420685 
	C312.648102,297.014435 320.360931,297.002380 328.543945,296.981140 
	C330.091034,296.977112 331.167938,296.982330 332.651184,296.989136 
	C332.844116,298.363098 332.033630,298.978027 330.655609,298.973419 
	C322.662292,298.946564 314.668671,298.956329 306.675995,298.872772 
	C306.163239,298.867401 305.657562,298.183258 305.041931,297.420685 
z"/>
<path fill="#E9091A" opacity="1.000000" stroke="none" 
	d="
M216.547852,297.973267 
	C216.987183,298.137482 216.991638,298.308289 216.999680,298.735321 
	C208.884262,298.993011 200.764908,299.033508 192.646561,298.961578 
	C191.109192,298.947998 189.257690,299.678925 188.056763,297.400848 
	C193.992661,297.001312 200.029251,296.997711 206.534439,296.989136 
	C209.964340,298.005524 213.023849,298.128265 216.547852,297.973267 
z"/>
<path fill="#595C5F" opacity="1.000000" stroke="none" 
	d="
M215.045258,211.371155 
	C219.008224,210.734421 222.692749,211.245865 226.339661,213.503189 
	C229.247162,215.302841 231.560577,216.676605 231.043884,220.622726 
	C230.563980,224.287888 228.593338,226.134048 225.199661,227.146515 
	C223.082687,227.778107 221.009781,228.088013 218.413147,227.994217 
	C219.125641,225.683029 219.917068,223.419647 220.163605,220.699570 
	C220.570709,216.207413 218.594269,213.699112 215.045258,211.371155 
z"/>
<path fill="#FE1421" opacity="1.000000" stroke="none" 
	d="
M300.684845,247.263733 
	C303.384705,247.014420 305.747620,247.016998 308.553406,247.025406 
	C309.785767,247.854889 310.049988,249.281036 309.260529,249.648056 
	C305.176270,251.546814 306.907654,254.597717 307.219299,257.722565 
	C298.536499,255.458984 289.702362,258.054840 281.156067,256.140137 
	C278.980743,255.652786 276.476196,255.967743 274.258362,256.489685 
	C270.707825,257.325256 267.787018,256.912048 265.308167,254.035065 
	C264.203888,252.753448 262.601044,251.959259 260.878418,252.054031 
	C255.287582,252.361649 253.364395,248.513260 251.112213,244.365845 
	C248.392776,239.357956 248.890793,233.466049 245.976929,228.194000 
	C246.049500,227.288116 246.217575,226.774551 246.606918,226.093582 
	C249.547928,225.149734 251.646683,223.957413 253.289841,221.245056 
	C257.106964,214.944046 263.698669,212.954819 270.511414,211.815933 
	C272.454529,211.491119 274.439362,211.341339 276.750122,210.901825 
	C279.073212,210.863892 281.030029,210.881424 283.406036,210.901093 
	C285.016113,210.021240 286.372375,209.972260 288.152557,210.221924 
	C290.631653,212.464355 292.748322,214.475174 295.921265,215.038376 
	C297.739532,215.361099 299.762512,216.366425 300.359863,218.010864 
	C302.041656,222.640625 305.519043,225.353500 309.440674,228.138535 
	C309.135529,229.414352 308.350342,229.446060 307.289795,229.761276 
	C296.697479,230.525925 286.382812,229.150085 276.109772,230.746155 
	C272.906036,231.243927 270.038788,232.003174 269.203613,235.352661 
	C268.321289,238.890991 268.817322,242.328186 272.224792,244.647842 
	C272.635101,244.927155 272.992371,245.284271 273.673676,245.768097 
	C274.701874,246.622757 275.463501,247.413422 276.506592,247.387527 
	C284.455780,247.190247 292.396790,248.445450 300.684845,247.263733 
z"/>
<path fill="#F11525" opacity="1.000000" stroke="none" 
	d="
M309.306946,229.205002 
	C308.881683,227.196335 307.621674,227.113693 306.221344,226.957825 
	C303.258331,226.628036 301.510651,224.821152 301.017944,221.939362 
	C300.400574,218.328430 297.932220,216.898819 294.748688,215.918060 
	C292.448608,215.209488 289.160522,215.571487 289.010925,211.389801 
	C290.366882,209.666000 292.110626,210.025208 293.727875,210.024460 
	C304.518738,210.019470 315.309845,209.930801 326.546112,210.123474 
	C328.046631,210.520340 328.806091,211.338348 328.602234,212.337677 
	C327.494202,217.768433 329.889557,222.472961 331.345642,227.727570 
	C327.420776,229.189407 323.550568,229.338776 319.337067,229.761230 
	C317.604797,229.992645 316.221954,230.000351 314.424347,229.997742 
	C312.649963,228.993958 311.065521,229.739258 309.306946,229.205002 
z"/>
<path fill="#E71627" opacity="1.000000" stroke="none" 
	d="
M330.743958,228.276001 
	C328.141571,222.954758 325.256470,217.919037 327.948303,211.418152 
	C328.423492,210.644150 328.915924,210.488113 329.821991,210.749954 
	C336.389893,210.953369 342.614563,211.061203 348.832855,210.908905 
	C352.278595,210.824524 353.899536,211.834198 352.361694,215.744110 
	C350.180817,216.887207 348.871490,218.162964 349.052124,220.772766 
	C349.063690,222.216568 348.594055,223.095642 347.406952,223.888855 
	C344.929352,225.603348 342.808502,227.291870 340.173157,228.812103 
	C337.271973,229.056595 334.610138,229.062103 331.504700,229.062988 
	C330.869171,228.891220 330.677338,228.724045 330.743958,228.276001 
z"/>
<path fill="#FD0F1C" opacity="1.000000" stroke="none" 
	d="
M276.889221,210.603607 
	C273.477875,214.832504 268.035950,212.286407 263.687653,214.680740 
	C259.414642,217.033585 255.272812,219.110733 253.212952,223.681152 
	C251.960220,226.460724 250.463425,227.623795 247.208618,225.982788 
	C246.642792,220.734818 250.891510,218.603165 254.105606,215.324448 
	C254.487717,214.886276 254.670090,214.732071 254.934692,214.407364 
	C255.473618,214.186264 255.907196,214.108292 256.669067,213.996582 
	C257.590576,213.976730 258.122345,213.812607 258.769745,213.208115 
	C258.964844,212.997940 258.991699,212.990219 258.999634,212.978699 
	C259.158813,212.826050 259.310059,212.684906 259.745087,212.418243 
	C262.721619,211.871674 265.558868,212.397018 268.508148,211.010437 
	C270.289246,210.230865 271.916626,210.594742 273.704315,209.918152 
	C274.941528,210.023392 275.801819,210.192108 276.889221,210.603607 
z"/>
<path fill="#E9091A" opacity="1.000000" stroke="none" 
	d="
M330.038940,210.561646 
	C329.685242,210.970367 329.202545,210.986572 328.359314,211.008316 
	C315.313202,211.009689 302.627594,211.005508 289.474060,211.003708 
	C287.570465,210.993774 286.134796,210.981461 284.262207,210.936188 
	C284.160828,209.251862 285.343628,208.979645 286.792114,208.982651 
	C300.490631,209.011063 314.189148,209.014069 327.887695,209.032974 
	C328.754211,209.034164 329.492523,209.333939 330.038940,210.561646 
z"/>
<path fill="#F40714" opacity="1.000000" stroke="none" 
	d="
M300.590851,247.007050 
	C300.742737,249.079529 299.196320,248.996124 297.681183,248.994980 
	C291.102905,248.989990 284.524628,248.985596 277.946381,248.999466 
	C276.195923,249.003143 274.631866,248.755310 274.033539,246.330780 
	C280.009247,245.961456 286.045349,245.992065 292.552612,246.041214 
	C295.203064,247.883881 297.790619,246.616898 300.590851,247.007050 
z"/>
<path fill="#E9091A" opacity="1.000000" stroke="none" 
	d="
M340.325104,229.057800 
	C341.370880,226.468307 343.218536,224.410507 346.750183,224.026871 
	C346.192169,227.240845 344.277222,229.202209 340.325104,229.057800 
z"/>
<path fill="#E9091A" opacity="1.000000" stroke="none" 
	d="
M330.564362,227.997101 
	C331.007843,228.172318 331.013275,228.349533 331.039856,228.792572 
	C327.417572,230.310089 323.642334,230.009567 319.440002,229.995728 
	C322.519836,228.309509 326.280609,227.916275 330.564362,227.997101 
z"/>
<path fill="#E9091A" opacity="1.000000" stroke="none" 
	d="
M349.327362,220.889404 
	C347.113495,218.213699 347.795227,216.493896 351.693665,216.018646 
	C351.248535,217.573288 350.415680,219.128357 349.327362,220.889404 
z"/>
<path fill="#E9091A" opacity="1.000000" stroke="none" 
	d="
M273.845673,209.646393 
	C272.958466,211.509735 271.234528,210.856323 269.310364,210.976929 
	C270.261658,209.801208 271.819824,209.261475 273.845673,209.646393 
z"/>
<path fill="#E9091A" opacity="1.000000" stroke="none" 
	d="
M308.697571,229.012726 
	C310.498047,229.138748 312.001007,229.287277 313.756775,229.711609 
	C311.958252,229.993439 309.906952,229.999435 307.415222,229.989899 
	C307.449860,229.661301 307.924927,229.348267 308.697571,229.012726 
z"/>
<path fill="#E5202F" opacity="1.000000" stroke="none" 
	d="
M258.674133,213.016479 
	C258.811249,213.919434 258.852020,215.063354 257.165588,214.193024 
	C257.459351,213.653564 257.921387,213.344299 258.674133,213.016479 
z"/>
<path fill="#E5202F" opacity="1.000000" stroke="none" 
	d="
M259.808716,212.314056 
	C259.862915,212.522736 259.655212,212.705200 259.206665,212.903656 
	C259.096802,212.660477 259.290436,212.449860 259.808716,212.314056 
z"/>
<path fill="#F11525" opacity="1.000000" stroke="none" 
	d="
M307.346558,258.051941 
	C306.718109,257.236542 306.633057,256.283661 306.116425,255.743622 
	C303.191528,252.686188 303.107208,250.603500 307.842743,249.777695 
	C308.825928,249.606247 308.909454,248.632095 308.988281,247.409470 
	C318.780701,246.820190 328.530853,247.143280 338.602600,248.963959 
	C338.703766,251.479080 336.770203,250.845139 335.238831,251.030991 
	C332.325470,251.384583 331.239349,252.528091 333.572021,255.070541 
	C334.927795,256.548248 335.921631,258.199677 335.996490,260.653595 
	C332.307526,261.019958 328.617462,261.009399 324.467377,260.988159 
	C321.968567,258.841614 319.780975,258.802582 317.228485,260.751099 
	C314.630127,260.995758 312.272430,261.002716 309.475189,261.000458 
	C308.924377,259.872131 309.213745,258.566284 307.346558,258.051941 
z"/>
<path fill="#E5202F" opacity="1.000000" stroke="none" 
	d="
M306.221527,261.941925 
	C305.877319,261.912567 305.989349,261.469421 306.022217,261.243347 
	C306.778564,261.021362 307.502106,261.025452 308.585754,261.050293 
	C308.380066,261.972778 307.485199,262.004547 306.221527,261.941925 
z"/>
<path fill="#FD0F1C" opacity="1.000000" stroke="none" 
	d="
M317.426758,260.996765 
	C316.973297,259.360657 317.257172,257.871918 319.348846,258.049622 
	C321.103821,258.198669 323.593445,256.976654 323.991272,260.578735 
	C321.960114,260.986572 319.912933,260.995667 317.426758,260.996765 
z"/>
</svg>